<?xml version="1.0" encoding="UTF-8" standalone="no"?>
<svg
   xmlns:dc="http://purl.org/dc/elements/1.1/"
   xmlns:cc="http://creativecommons.org/ns#"
   xmlns:rdf="http://www.w3.org/1999/02/22-rdf-syntax-ns#"
   xmlns:svg="http://www.w3.org/2000/svg"
   xmlns="http://www.w3.org/2000/svg"
   xmlns:sodipodi="http://sodipodi.sourceforge.net/DTD/sodipodi-0.dtd"
   xmlns:inkscape="http://www.inkscape.org/namespaces/inkscape"
   width="13"
   height="13"
   viewBox="0 0 1792 1792"
   id="svg2"
   version="1.1"
   inkscape:version="0.91 r13725"
   sodipodi:docname="icon-unknown-yellow.svg">
  <metadata
     id="metadata10">
    <rdf:RDF>
      <cc:Work
         rdf:about="">
        <dc:format>image/svg+xml</dc:format>
        <dc:type
           rdf:resource="http://purl.org/dc/dcmitype/StillImage" />
        <dc:title></dc:title>
      </cc:Work>
    </rdf:RDF>
  </metadata>
  <defs
     id="defs8" />
  <sodipodi:namedview
     pagecolor="#ffffff"
     bordercolor="#666666"
     borderopacity="1"
     objecttolerance="10"
     gridtolerance="10"
     guidetolerance="10"
     inkscape:pageopacity="0"
     inkscape:pageshadow="2"
     inkscape:window-width="1164"
     inkscape:window-height="997"
     id="namedview6"
     showgrid="false"
     inkscape:zoom="53.600023"
     inkscape:cx="6.239583"
     inkscape:cy="6.5"
     inkscape:window-x="510"
     inkscape:window-y="26"
     inkscape:window-maximized="0"
     inkscape:current-layer="svg2" />
  <path
     fill="#666666"
     d="M1024 1376v-192q0-14-9-23t-23-9h-192q-14 0-23 9t-9 23v192q0 14 9 23t23 9h192q14 0 23-9t9-23zm256-672q0-88-55.5-163t-138.5-116-170-41q-243 0-371 213-15 24 8 42l132 100q7 6 19 6 16 0 25-12 53-68 86-92 34-24 86-24 48 0 85.5 26t37.5 59q0 38-20 61t-68 45q-63 28-115.5 86.5t-52.5 125.5v36q0 14 9 23t23 9h192q14 0 23-9t9-23q0-19 21.5-49.5t54.5-49.5q32-18 49-28.5t46-35 44.5-48 28-60.5 12.5-81zm384 192q0 209-103 385.5t-279.5 279.5-385.5 103-385.5-103-279.5-279.5-103-385.5 103-385.5 279.5-279.5 385.5-103 385.5 103 279.5 279.5 103 385.5z"
     id="path4"
     style="fill:#efb80b;fill-opacity:1" />
</svg>
